HIERARCHY
ROOT Hips
{
OFFSET -0.1795 -22.3333 2.8219000000000003
	CHANNELS 6 Xposition Yposition Zposition Zrotation Yrotation Xrotation 
	JOINT LeftUpLeg
	{
OFFSET 6.952 -9.140600000000001 -0.6815
		CHANNELS 3 Zrotation Yrotation Xrotation
		JOINT LeftLeg
		{
OFFSET 3.4277 -37.5199 -0.4496
			CHANNELS 3 Zrotation Yrotation Xrotation
			JOINT LeftFoot
			{
OFFSET -1.3596000000000001 -39.7961 -4.3693
				CHANNELS 3 Zrotation Yrotation Xrotation
				JOINT LeftToe
				{
OFFSET 2.6358 -5.5791 11.9288
					CHANNELS 3 Zrotation Yrotation Xrotation
					End Site
					{
OFFSET 0.0 0.0 0.0
					}
				}
			}
		}
	}
	JOINT RightUpLeg
	{
OFFSET -6.7669999999999995 -9.052200000000001 -0.432
		CHANNELS 3 Zrotation Yrotation Xrotation
		JOINT RightLeg
		{
OFFSET -3.8289999999999997 -38.2569 -0.885
			CHANNELS 3 Zrotation Yrotation Xrotation
			JOINT RightFoot
			{
OFFSET 1.5774 -39.8415 -4.2312
				CHANNELS 3 Zrotation Yrotation Xrotation
				JOINT RightToe
				{
OFFSET -2.5372 -4.8144 12.3348
					CHANNELS 3 Zrotation Yrotation Xrotation
					End Site
					{
OFFSET 0.0 0.0 0.0
					}
				}
			}
		}
	}
	JOINT Spine
	{
OFFSET -0.2533 10.8963 -2.6696
		CHANNELS 3 Zrotation Yrotation Xrotation
		JOINT Spine1
		{
OFFSET 0.5487 13.517999999999999 0.1092
			CHANNELS 3 Zrotation Yrotation Xrotation
			JOINT Spine2
			{
OFFSET 0.1457 5.292199999999999 2.5425
				CHANNELS 3 Zrotation Yrotation Xrotation
				JOINT Neck
				{
OFFSET -0.2778 21.387 -4.2857
					CHANNELS 3 Zrotation Yrotation Xrotation
					JOINT Head
					{
OFFSET 0.5152 6.497 5.1349
						CHANNELS 3 Zrotation Yrotation Xrotation
						End Site
						{
OFFSET 0.0 0.0 0.0
						}
					}
				}
				JOINT LeftShoulder
				{
OFFSET 7.8845 12.1749 -3.4090000000000003
					CHANNELS 3 Zrotation Yrotation Xrotation
					JOINT LeftArm
					{
OFFSET 9.0977 3.0469 -0.8867999999999999
						CHANNELS 3 Zrotation Yrotation Xrotation
						JOINT LeftForeArm
						{
OFFSET 25.9612 -1.2772000000000001 -2.7456
							CHANNELS 3 Zrotation Yrotation Xrotation
							JOINT LeftHand
							{
OFFSET 24.9234 0.8986 -0.1171
								CHANNELS 3 Zrotation Yrotation Xrotation
								End Site
								{
OFFSET 0.0 0.0 0.0
								}
							}
						}
					}
				}
				JOINT RightShoulder
				{
OFFSET -8.1759 11.8833 -3.8614999999999995
					CHANNELS 3 Zrotation Yrotation Xrotation
					JOINT RightArm
					{
OFFSET -9.6012 3.2550999999999997 -0.9143
						CHANNELS 3 Zrotation Yrotation Xrotation
						JOINT RightForeArm
						{
OFFSET -25.374200000000002 -1.3329 -2.1401
							CHANNELS 3 Zrotation Yrotation Xrotation
							JOINT RightHand
							{
OFFSET -25.5298 0.7772 -0.5559
								CHANNELS 3 Zrotation Yrotation Xrotation
								End Site
								{
OFFSET 0.0 0.0 0.0
								}
							}
						}
					}
				}
			}
		}
	}
}
MOTION
Frames: 10
Frame Time: 0.050000
0.0 94.8639 0.0 2.427680 17.792206 0.245643 9.536119 -1.050987 -18.437271 -2.289658 -0.537496 15.366936 0.140162 6.793443 11.788601 0.000000 0.000000 0.000000 0.010532 0.528039 -5.391047 -0.235949 0.011664 17.603285 -2.239813 -5.309787 -4.825074 0.000000 0.000000 0.000000 4.176283 -1.048499 10.803326 0.794411 0.123693 -6.168879 -1.666699 5.429607 13.637437 5.275411 -2.773653 -5.382564 0.000000 0.000000 0.000000 -10.219706 3.961588 -4.462569 -57.575063 5.247506 -11.044457 -16.472958 -34.874647 5.019891 0.000000 0.000000 0.000000 4.567633 -5.159937 -1.733876 64.263505 7.741092 -0.627982 5.411010 38.698220 5.305679 0.000000 0.000000 0.000000
3.0979 94.3831 1.3065 1.649715 16.097048 0.141366 12.627195 -0.667461 -16.701730 1.846340 -0.588251 6.660554 -7.154543 -2.386738 16.878385 0.000000 0.000000 0.000000 -1.992603 0.407220 -5.304022 0.737502 -0.265646 19.384502 -2.197640 -4.713092 -6.440837 0.000000 0.000000 0.000000 3.402999 -0.942044 10.720194 1.237730 -0.007924 -7.336998 -0.812719 4.007794 15.511406 4.801650 -1.933753 -8.171719 0.000000 0.000000 0.000000 -8.937772 7.178234 -5.106350 -60.689635 3.357528 -11.117873 -13.782042 -33.650267 4.349706 0.000000 0.000000 0.000000 4.325996 -3.710974 -1.194894 64.256620 5.509054 -2.428799 5.279429 41.045088 5.548824 0.000000 0.000000 0.000000
6.4692 93.974 2.5972 1.176139 11.924371 -0.605315 12.509162 -0.444500 -16.063639 4.621969 -1.098540 7.534913 -10.438575 -7.936792 17.483183 0.000000 0.000000 0.000000 -3.135899 0.432028 -6.339169 0.526168 -0.022525 22.302638 -1.469912 -2.562488 -4.423254 0.000000 0.000000 0.000000 2.804923 -0.816119 10.572361 1.192014 -0.094256 -6.813068 -0.294103 6.212216 16.760501 6.019022 -2.842994 -8.289893 0.000000 0.000000 0.000000 -7.641419 4.861356 -3.755778 -62.297630 0.536403 -10.267147 -10.580974 -33.199991 3.458875 0.000000 0.000000 0.000000 4.700747 -4.671037 -1.580305 64.899252 4.296191 -3.285430 2.981048 40.836394 4.771922 0.000000 0.000000 0.000000
10.1424 93.8017 3.8205000000000005 1.090618 9.545903 -0.925312 11.847506 -0.362495 -14.366652 2.940560 -0.922038 8.863647 -8.528170 -7.255451 14.181495 0.000000 0.000000 0.000000 -3.245637 0.445587 -6.359518 -1.511269 0.817864 23.197446 -1.317254 -1.891466 -4.551788 0.000000 0.000000 0.000000 1.394692 -0.718657 11.494759 2.349588 -0.676812 -5.951171 0.261555 5.955662 15.929293 5.573537 -2.634850 -8.336062 0.000000 0.000000 0.000000 -8.768643 4.307511 -3.662378 -63.831728 -0.965168 -9.443066 -6.846652 -32.487525 2.508438 0.000000 0.000000 0.000000 4.871757 -4.585891 -1.623277 63.284446 2.396992 -4.538052 2.483524 38.736699 3.965749 0.000000 0.000000 0.000000
13.8351 94.08959999999999 4.7512 0.857381 8.250929 -1.551932 10.525391 -0.385372 -13.384607 1.943741 -0.918550 11.342782 -6.679277 -6.048991 11.294068 0.000000 0.000000 0.000000 -4.680240 0.360979 -6.267194 -2.943839 1.413201 24.103655 -1.488596 -3.403414 -1.330826 0.000000 0.000000 0.000000 0.466646 -0.723658 13.304308 3.797294 -1.312932 -6.024468 0.389740 4.678178 16.602585 6.162819 -2.952795 -9.997612 0.000000 0.000000 0.000000 -8.595179 2.787471 -2.751553 -63.270149 -3.717724 -7.728847 -6.721071 -34.090921 2.847734 0.000000 0.000000 0.000000 4.202856 -5.352655 -2.029261 63.711221 0.986497 -5.570762 1.292187 37.425739 3.195917 0.000000 0.000000 0.000000
17.2148 94.69720000000001 5.4217 0.424497 5.112117 -0.605475 9.972433 -0.343590 -13.424269 0.915548 -0.739770 12.600005 -4.108279 -2.709371 9.817465 0.000000 0.000000 0.000000 -5.049084 0.554397 -9.415624 -2.723491 1.615787 25.698843 -3.066769 -7.843544 0.252593 0.000000 0.000000 0.000000 -0.319957 -0.609280 13.806012 3.805007 -1.369811 -5.872746 1.657720 2.736056 16.827059 6.678300 -3.887725 -9.106248 0.000000 0.000000 0.000000 -8.511194 3.096638 -2.455264 -63.884967 -6.259670 -6.081223 -5.783598 -34.102969 3.009110 0.000000 0.000000 0.000000 3.606986 -4.560471 -1.809848 63.718730 1.589998 -5.821319 1.309206 34.877165 2.536516 0.000000 0.000000 0.000000
20.21 95.5604 6.0351 -0.256701 1.353756 1.040980 9.164675 -0.313899 -12.415738 -0.199985 -0.322213 9.939907 -2.403385 0.382688 10.954815 0.000000 0.000000 0.000000 -3.801833 0.964253 -13.328691 0.835590 0.676341 26.299813 -4.920315 -12.403273 0.440692 0.000000 0.000000 0.000000 -0.826904 -0.466851 13.464360 4.291518 -1.599589 -6.099456 1.794889 3.278942 17.289591 7.749608 -4.772533 -9.373504 0.000000 0.000000 0.000000 -7.608805 3.613087 -2.386875 -63.032912 -8.216179 -4.818389 -7.351488 -36.049645 3.881430 0.000000 0.000000 0.000000 4.338215 -4.990613 -2.072861 63.842552 1.052799 -6.394323 1.182444 31.726793 2.086180 0.000000 0.000000 0.000000
22.9937 96.0021 6.8139 -0.929774 -2.104391 2.083534 8.167602 -0.290571 -10.447102 -0.125076 -0.222343 7.752303 -0.605478 2.523611 9.462052 0.000000 0.000000 0.000000 -1.915961 1.532086 -17.114448 5.495082 -0.634016 25.456680 -6.958218 -17.494803 3.437040 0.000000 0.000000 0.000000 -0.643554 -0.439100 13.630364 4.389992 -1.669463 -6.212848 1.333816 2.716025 16.858814 8.668336 -5.882003 -8.226156 0.000000 0.000000 0.000000 -7.418763 3.939832 -2.290629 -61.611732 -8.496639 -4.281287 -8.605590 -39.159559 5.002562 0.000000 0.000000 0.000000 6.415841 -3.463388 -1.743819 62.899312 1.180484 -6.609331 -0.470748 31.013579 1.386075 0.000000 0.000000 0.000000
25.756600000000002 96.03150000000001 7.8694 -0.867684 -6.029680 3.481066 7.331887 -0.278263 -9.705977 -0.931495 -0.010262 6.584754 1.592158 5.841026 9.072147 0.000000 0.000000 0.000000 -0.561929 2.029544 -19.404172 7.090472 -0.807141 23.559222 -8.091869 -20.282545 7.421391 0.000000 0.000000 0.000000 -0.605746 -0.363937 13.160281 4.465292 -1.740790 -6.121678 0.731120 3.879066 16.126026 7.805889 -5.208891 -8.408816 0.000000 0.000000 0.000000 -7.237671 3.138898 -1.870615 -60.784260 -9.353269 -3.623064 -8.026549 -39.784505 4.973511 0.000000 0.000000 0.000000 8.396915 -2.830986 -1.743820 61.893074 0.991342 -6.670232 -1.759822 29.788080 0.902211 0.000000 0.000000 0.000000
28.592499999999998 95.8869 9.2189 -0.364161 -10.171762 3.844495 4.977710 -0.353207 -8.014102 -1.170271 0.082981 5.956948 3.478188 8.643322 8.218651 0.000000 0.000000 0.000000 -0.367496 2.415468 -21.346778 6.064821 -0.167501 23.855688 -8.986718 -22.285366 8.626921 0.000000 0.000000 0.000000 -0.060175 -0.380388 13.847301 2.946634 -1.159804 -6.609397 1.515545 3.442992 15.482190 7.502712 -5.031102 -9.299356 0.000000 0.000000 0.000000 -8.743197 1.992978 -1.247437 -59.926637 -9.714998 -3.109205 -7.857618 -41.131549 5.461478 0.000000 0.000000 0.000000 10.699403 -1.579082 -1.797513 60.289812 0.775615 -6.745778 -3.117968 30.003559 0.319400 0.000000 0.000000 0.000000
